<?xml version="1.0" standalone="no"?>
<!DOCTYPE svg PUBLIC "-//W3C//DTD SVG 20010904//EN"
 "http://www.w3.org/TR/2001/REC-SVG-20010904/DTD/svg10.dtd">
<svg version="1.0" xmlns="http://www.w3.org/2000/svg"
 width="1817.000000pt" height="1817.000000pt" viewBox="0 0 1817.000000 1817.000000"
 preserveAspectRatio="xMidYMid meet">
<metadata>
Created by potrace 1.11, written by Peter Selinger 2001-2013
</metadata>
<g transform="translate(0.000000,1817.000000) scale(0.100000,-0.100000)"
fill="#000000" stroke="none">
<path d="M8725 17879 c-342 -21 -666 -58 -1005 -115 -2155 -357 -4068 -1453
-5428 -3109 -1130 -1375 -1823 -3092 -1987 -4920 -46 -522 -46 -880 0 -1400
184 -2047 1015 -3919 2386 -5374 1405 -1492 3317 -2451 5399 -2710 729 -91
1306 -92 2025 -5 2374 289 4473 1449 5929 3277 929 1167 1552 2575 1806 4081
160 948 170 1723 34 2651 -200 1371 -688 2645 -1447 3778 -455 679 -1025 1313
-1657 1840 -1303 1087 -2898 1765 -4615 1962 -315 36 -510 47 -900 50 -220 2
-463 -1 -540 -6z m945 -50 c1692 -96 3323 -678 4659 -1663 178 -131 374 -287
516 -410 209 -182 314 -280 309 -287 -3 -5 1 -9 9 -9 24 0 527 -523 527 -548
0 -6 8 -13 18 -17 29 -10 348 -405 515 -637 151 -210 459 -685 448 -691 -6 -3
48 -97 70 -122 40 -45 277 -509 394 -770 179 -401 325 -805 449 -1245 67 -236
90 -330 154 -625 35 -156 96 -524 108 -645 3 -36 8 -74 10 -85 5 -19 9 -58 33
-275 20 -176 41 -559 41 -738 0 -388 -45 -938 -105 -1302 -8 -47 -16 -103 -19
-126 -6 -55 -18 -117 -24 -128 -2 -4 -6 -28 -8 -52 -2 -24 -12 -81 -23 -126
-11 -46 -23 -101 -27 -123 -6 -38 -48 -212 -99 -410 -66 -260 -166 -572 -285
-888 -63 -169 -101 -261 -202 -492 -68 -154 -244 -504 -355 -705 -168 -303
-540 -869 -649 -985 -15 -16 -27 -32 -27 -35 3 -11 -65 -89 -71 -82 -4 4 -6 2
-4 -5 6 -24 -238 -315 -499 -595 -177 -189 -443 -448 -461 -448 -5 0 -25 -17
-44 -38 -19 -21 -42 -42 -52 -45 -9 -4 -15 -10 -14 -15 6 -18 -374 -329 -637
-522 -212 -155 -584 -400 -655 -432 -71 -31 -114 -55 -138 -78 -42 -38 -517
-289 -690 -364 -42 -19 -124 -55 -181 -80 -57 -25 -107 -43 -112 -40 -5 3 -9
1 -9 -4 0 -13 -269 -119 -555 -219 -491 -171 -1087 -317 -1580 -387 -333 -47
-467 -63 -650 -76 -82 -6 -190 -15 -240 -20 -86 -9 -711 -5 -845 5 -376 29
-690 63 -690 75 0 4 -11 5 -24 3 -60 -12 -720 116 -1021 198 -682 183 -1130
349 -1705 630 -394 193 -634 332 -1038 600 -172 115 -505 357 -557 406 -11 11
-56 47 -100 82 -320 254 -793 717 -1095 1072 -199 234 -272 328 -263 342 3 6
1 7 -4 4 -21 -13 -381 500 -560 798 -574 954 -953 1964 -1152 3070 -111 617
-164 1321 -137 1820 72 1319 383 2517 946 3647 131 262 221 423 405 723 198
322 488 718 764 1044 280 329 770 810 1081 1061 292 235 397 314 675 501 993
672 2126 1135 3335 1363 736 139 1429 186 2140 145z"/>
<path d="M8755 17620 c-192 -11 -464 -37 -685 -66 -1572 -208 -3015 -806
-4233 -1753 -506 -394 -1025 -906 -1420 -1404 -873 -1098 -1471 -2415 -1731
-3812 -189 -1011 -201 -1874 -41 -2870 218 -1358 747 -2645 1534 -3730 271
-375 524 -670 875 -1021 440 -440 813 -745 1321 -1081 110 -73 205 -137 212
-143 7 -5 15 -10 18 -10 4 0 66 -35 138 -78 1253 -745 2779 -1177 4262 -1209
232 -5 542 5 705 22 19 2 69 7 110 10 136 11 482 55 663 86 1241 208 2380 652
3392 1324 506 336 889 648 1311 1069 425 426 738 805 1067 1296 72 107 134
197 139 198 4 2 6 8 2 13 -3 5 0 9 5 9 6 0 11 7 11 15 0 8 5 15 10 15 6 0 10
7 10 15 0 8 5 15 12 15 6 0 9 3 6 6 -3 3 30 67 74 142 445 759 782 1617 978
2487 172 766 251 1606 210 2250 -80 1260 -379 2399 -913 3481 -351 709 -725
1267 -1271 1894 -134 155 -569 589 -736 735 -1305 1141 -2869 1835 -4606 2045
-441 53 -993 73 -1429 50z m605 -1230 c443 -15 788 -53 1207 -131 727 -136
1457 -395 2088 -742 150 -82 359 -208 363 -219 2 -4 8 -8 14 -8 6 0 32 -16 58
-35 26 -19 52 -35 58 -35 6 0 12 -4 14 -8 2 -4 41 -33 88 -64 155 -102 280
-191 340 -244 33 -29 127 -108 164 -136 15 -13 43 -36 61 -53 18 -16 41 -37
51 -45 224 -184 625 -586 834 -835 88 -105 253 -313 279 -351 14 -22 67 -95
116 -163 50 -69 109 -154 132 -190 96 -150 233 -380 233 -389 0 -6 6 -17 13
-24 27 -27 307 -573 307 -599 0 -8 7 -23 15 -33 8 -10 12 -23 9 -27 -3 -5 0
-9 6 -9 6 0 8 -4 5 -10 -3 -5 -2 -10 4 -10 6 0 13 -16 17 -35 3 -19 10 -35 16
-35 5 0 7 -4 4 -9 -4 -5 -1 -11 4 -13 6 -2 12 -13 13 -26 0 -12 5 -22 9 -22 4
0 8 -10 8 -23 0 -12 7 -33 16 -45 8 -12 12 -22 7 -22 -4 0 -2 -4 5 -9 7 -4 14
-18 15 -29 1 -12 4 -22 7 -22 4 0 7 -6 7 -12 0 -7 21 -68 47 -136 25 -68 46
-132 46 -142 0 -11 4 -20 10 -20 8 0 29 -61 35 -100 1 -8 9 -32 19 -54 9 -21
19 -50 21 -65 1 -14 26 -106 54 -203 29 -97 54 -193 56 -214 3 -20 10 -43 16
-50 5 -6 9 -16 8 -20 -1 -5 0 -11 1 -14 1 -3 4 -16 5 -30 1 -14 23 -126 49
-250 25 -124 49 -255 53 -292 3 -38 10 -68 16 -68 5 0 7 -13 4 -29 -3 -16 -3
-32 1 -36 4 -4 8 -25 8 -48 1 -23 11 -140 23 -259 11 -120 21 -242 21 -272 0
-30 4 -57 9 -60 5 -3 7 -97 6 -208 -1 -112 0 -207 3 -212 10 -18 12 -87 2 -81
-6 4 -10 -17 -10 -57 0 -35 -7 -144 -15 -242 -8 -100 -11 -184 -6 -190 5 -6 6
-20 4 -31 -2 -11 -5 -27 -7 -35 -1 -9 -5 -20 -8 -26 -4 -6 -9 -37 -12 -70 -6
-60 -58 -382 -75 -464 -5 -25 -7 -57 -4 -71 3 -15 0 -30 -6 -33 -5 -4 -8 -13
-4 -21 3 -9 0 -21 -6 -29 -6 -7 -18 -46 -26 -87 -24 -113 -31 -146 -59 -253
-16 -59 -23 -103 -17 -109 9 -9 -12 -91 -30 -113 -6 -7 -8 -17 -5 -22 7 -12
-18 -92 -31 -100 -6 -4 -26 -52 -44 -107 -17 -55 -61 -181 -96 -279 -36 -98
-65 -187 -66 -198 -1 -10 -5 -18 -10 -18 -4 0 -6 -4 -2 -9 3 -5 1 -12 -5 -16
-6 -4 -8 -11 -5 -16 4 -5 2 -9 -3 -9 -12 0 -33 -56 -25 -64 4 -3 1 -6 -6 -6
-7 0 -10 -4 -6 -9 3 -5 1 -12 -5 -16 -6 -4 -8 -11 -5 -16 4 -5 1 -9 -5 -9 -6
0 -8 -4 -5 -10 3 -5 2 -10 -3 -10 -5 0 -19 -24 -30 -52 -26 -66 -142 -319
-152 -333 -4 -5 -31 -57 -60 -115 -53 -106 -244 -440 -281 -492 -11 -15 -18
-32 -15 -37 3 -5 -1 -12 -10 -15 -8 -3 -13 -10 -10 -15 3 -5 -1 -12 -10 -15
-9 -4 -14 -9 -11 -12 2 -3 -6 -17 -19 -31 -13 -14 -21 -29 -18 -34 3 -5 0 -9
-6 -9 -6 0 -8 -5 -5 -10 3 -6 -1 -13 -9 -16 -9 -3 -13 -10 -10 -15 3 -5 1 -9
-5 -9 -5 0 -51 -60 -102 -132 -122 -176 -233 -320 -337 -439 -19 -21 -35 -45
-36 -53 -1 -8 -14 -25 -29 -36 -15 -12 -25 -26 -21 -31 3 -5 1 -8 -4 -7 -5 2
-59 -53 -121 -122 -62 -69 -127 -139 -144 -156 -18 -16 -97 -97 -177 -178 -80
-82 -146 -147 -147 -145 -1 2 -24 -17 -50 -42 -26 -25 -78 -71 -115 -102 -36
-30 -75 -64 -85 -74 -10 -10 -36 -32 -58 -48 -21 -17 -55 -45 -74 -62 -20 -18
-39 -33 -42 -33 -4 0 -35 -22 -70 -50 -93 -73 -262 -198 -291 -215 -9 -5 -81
-53 -160 -106 -79 -52 -184 -119 -235 -148 -51 -29 -95 -62 -98 -72 -4 -11
-11 -17 -16 -14 -5 4 -9 1 -9 -6 0 -7 -3 -10 -6 -6 -4 3 -13 -1 -21 -9 -9 -8
-22 -13 -29 -10 -8 3 -35 -7 -62 -22 -77 -46 -404 -208 -444 -221 -21 -7 -42
-19 -46 -28 -5 -8 -13 -14 -18 -14 -15 1 -45 -10 -109 -39 -33 -15 -72 -30
-87 -33 -15 -4 -34 -14 -42 -23 -9 -8 -16 -13 -16 -10 0 3 -37 -9 -82 -25 -46
-17 -128 -47 -183 -66 -55 -19 -102 -39 -103 -44 -2 -5 -8 -7 -13 -3 -5 3 -9
0 -9 -6 0 -7 -6 -10 -14 -7 -8 3 -17 3 -21 -1 -4 -4 -11 -8 -16 -8 -5 -1 -10
-2 -11 -4 -2 -1 -12 -3 -23 -4 -19 -3 -64 -16 -195 -56 -31 -10 -97 -28 -148
-41 -53 -14 -92 -29 -92 -36 0 -7 -6 -10 -14 -7 -8 3 -17 1 -20 -5 -4 -6 -13
-8 -20 -5 -8 3 -17 0 -21 -6 -4 -7 -11 -8 -18 -1 -8 6 -33 4 -72 -5 -157 -37
-201 -45 -345 -70 -85 -14 -162 -29 -170 -32 -8 -3 -19 -6 -25 -7 -5 -1 -14
-3 -20 -5 -5 -2 -28 -4 -50 -5 -22 -1 -101 -9 -175 -18 -200 -24 -216 -26
-330 -33 -58 -4 -109 -10 -115 -14 -5 -4 -133 -7 -282 -6 -210 1 -274 -2 -278
-11 -5 -16 -65 -17 -65 -3 0 6 -19 10 -42 10 -72 -1 -305 14 -488 33 -63 6
-139 11 -167 10 -31 -1 -53 3 -53 9 0 7 -15 8 -39 4 -22 -3 -42 -2 -45 2 -3 5
-18 9 -33 10 -15 1 -109 15 -208 32 -99 18 -202 33 -228 35 -26 2 -54 8 -61
14 -7 6 -31 13 -52 14 -21 2 -52 9 -68 16 -16 6 -45 13 -65 15 -20 1 -49 8
-64 14 -16 7 -35 12 -42 12 -8 0 -34 7 -59 15 -32 11 -51 12 -70 5 -18 -7 -26
-6 -26 1 0 6 -9 9 -20 6 -13 -3 -20 0 -20 9 0 8 -6 14 -12 15 -72 6 -92 11
-114 28 -15 12 -30 19 -34 16 -10 -6 -73 15 -81 27 -3 5 -19 11 -35 13 -16 2
-30 4 -31 6 -2 1 -6 2 -10 4 -5 1 -21 7 -36 13 -16 7 -30 12 -33 12 -2 0 -57
21 -121 46 -64 25 -125 43 -134 41 -9 -3 -24 4 -33 14 -14 16 -39 25 -49 17
-2 -2 -15 5 -29 14 -15 10 -62 32 -105 49 -107 42 -357 152 -363 160 -3 3 -68
37 -145 76 -77 39 -170 89 -208 112 -37 22 -70 41 -72 41 -3 0 -42 23 -86 50
-44 28 -85 48 -89 45 -5 -3 -19 5 -32 18 -13 13 -43 36 -68 53 -25 16 -46 32
-48 37 -2 4 -10 7 -17 7 -8 0 -20 6 -27 13 -7 7 -51 37 -98 67 -47 30 -101 66
-120 80 -19 15 -66 48 -105 75 -38 27 -105 79 -148 117 -42 37 -84 68 -92 68
-8 0 -15 4 -15 9 0 5 -33 35 -73 67 -128 104 -299 255 -400 353 -141 137 -563
586 -607 646 -21 27 -48 62 -61 76 -141 155 -493 646 -585 817 -15 28 -32 52
-36 52 -4 0 -8 7 -8 15 0 8 -9 24 -20 35 -12 12 -18 25 -15 30 4 6 1 10 -4 10
-6 0 -11 7 -11 15 0 8 -5 15 -11 15 -5 0 -8 4 -5 9 4 5 2 11 -2 13 -21 8 -198
350 -299 578 -312 701 -502 1411 -587 2190 -53 478 -53 1082 0 1605 221 2203
1407 4171 3238 5370 1126 737 2433 1148 3801 1194 121 4 225 8 230 9 6 1 134
-3 285 -8z m-3857 -896 c-17 -7 -34 -18 -38 -24 -3 -6 -11 -8 -16 -5 -5 4 -9
1 -9 -5 0 -6 -5 -8 -10 -5 -6 4 -7 11 -4 17 4 7 2 8 -4 4 -6 -4 -9 -12 -6 -19
2 -7 -34 -34 -88 -66 -361 -211 -763 -502 -1108 -804 -153 -134 -520 -502
-653 -655 -366 -420 -675 -863 -932 -1339 -82 -151 -86 -156 -80 -108 79 630
352 1238 784 1750 86 102 340 365 352 365 5 0 26 18 47 39 34 34 41 38 53 25
13 -12 15 -11 16 8 2 18 0 20 -7 8 -5 -8 -10 -11 -10 -6 0 12 57 66 70 66 5 0
14 9 20 20 6 11 17 20 25 20 8 0 19 9 25 20 6 11 14 18 19 16 4 -3 14 3 23 12
8 9 25 25 38 36 19 15 22 15 17 3 -3 -9 -1 -19 5 -23 6 -4 9 -3 6 2 -9 15 10
54 27 54 9 0 14 -4 10 -9 -3 -5 -1 -13 5 -16 6 -4 9 -1 8 7 -2 7 3 12 9 11 7
-2 12 3 10 10 -1 6 4 11 11 9 8 -1 11 2 7 8 -5 8 -13 6 -26 -6 -10 -9 -19 -14
-19 -10 0 4 10 16 23 26 15 13 26 15 34 8 7 -6 10 -15 6 -21 -4 -6 -1 -7 6 -2
9 5 9 11 3 17 -12 12 -4 40 9 32 5 -3 7 -9 5 -13 -3 -4 1 -8 9 -8 10 0 12 4 5
12 -5 6 -5 16 0 25 6 8 10 12 11 8 1 -5 3 -12 4 -18 1 -5 3 -13 4 -16 0 -3 6
-2 12 2 8 4 8 9 0 17 -19 19 -12 31 8 13 13 -12 21 -14 26 -6 4 6 4 14 1 17
-3 4 -6 1 -6 -6 0 -7 -5 -9 -11 -6 -7 5 -3 16 12 31 12 13 25 21 29 19 4 -2
16 4 27 15 19 17 22 17 39 2 15 -15 16 -15 6 -1 -10 13 -9 19 1 28 8 6 17 8
21 4 12 -13 33 -11 33 3 0 10 -4 11 -14 3 -7 -7 -13 -7 -13 -2 0 10 50 38 63
35 4 -1 7 3 7 10 0 6 6 4 13 -6 12 -16 14 -16 26 -2 7 9 17 13 22 10 5 -3 9
-2 8 3 -3 20 2 24 17 13 12 -11 15 -11 12 0 -2 8 2 14 9 15 18 0 25 12 12 21
-8 5 -10 3 -4 -7 5 -8 5 -11 0 -7 -4 4 -14 3 -22 -3 -7 -6 -13 -8 -13 -4 0 5
-9 0 -20 -10 -11 -10 -20 -13 -20 -8 0 10 71 50 78 44 2 -2 14 4 27 13 17 11
26 13 31 4 4 -6 3 -8 -3 -5 -5 3 -10 0 -10 -8 0 -13 4 -12 19 2 10 9 18 13 18
8 0 -4 6 -2 13 4 8 6 16 9 19 6 2 -3 5 2 5 10 0 11 -4 12 -14 4 -7 -6 -13 -8
-13 -4 0 4 -7 2 -15 -5 -8 -7 -15 -8 -15 -3 0 6 18 17 39 25 38 15 39 15 36
-4 -3 -12 -1 -17 3 -14 7 7 8 11 11 37 0 5 6 7 11 4 6 -4 8 -10 6 -14 -3 -4 1
-8 9 -8 8 0 14 3 13 6 -2 23 4 41 12 36 5 -3 7 -13 4 -23 -5 -16 -5 -16 6 1
12 19 36 24 24 5 -4 -7 -3 -8 5 -4 16 10 3 29 -16 22 -8 -3 -12 -2 -9 3 3 5
15 11 26 14 11 3 18 1 15 -3 -3 -5 -1 -12 5 -15 6 -4 10 -3 9 2 -1 4 -1 15 0
23 1 13 3 13 10 0 6 -8 7 -19 3 -25 -3 -5 1 -4 10 2 8 7 17 10 20 8 3 -3 5 2
4 12 0 10 1 18 4 19 3 0 16 6 29 13 19 11 22 11 18 -1 -2 -7 -11 -11 -18 -10
-8 2 -10 0 -6 -4 10 -10 37 -14 36 -6 -1 4 -1 16 0 27 1 16 3 17 10 5 6 -8 7
-18 4 -24 -3 -5 -1 -6 5 -2 6 4 9 13 6 20 -7 18 12 30 22 15 5 -8 3 -9 -7 -4
-12 8 -12 6 0 -8 18 -23 20 -22 15 10 -3 15 -2 24 2 21 4 -4 16 -3 26 3 16 9
19 8 15 -3 -2 -7 -9 -12 -14 -11 -5 1 -10 -5 -10 -13 0 -12 3 -12 17 1 9 8 19
13 22 10 3 -3 11 3 19 12 13 16 12 17 -3 4 -10 -7 -18 -9 -18 -3 0 5 14 15 30
21 17 5 30 7 30 4 0 -3 7 0 15 7 9 7 18 10 22 7 3 -4 12 -2 19 3 14 13 54 22
54 13 0 -4 -8 -16 -17 -27 -14 -16 -14 -18 -2 -8 9 6 19 8 23 4 4 -4 7 -2 6 3
-5 21 0 45 9 45 6 0 8 -9 6 -20 -2 -12 0 -18 6 -15 5 4 7 10 4 15 -5 9 11 23
30 26 50 10 60 13 60 15 0 1 11 2 25 3 14 1 31 5 38 10 7 4 16 5 19 2 3 -3 12
-1 20 5 7 6 13 9 13 6 0 -3 12 -2 28 3 42 13 50 10 15 -6z m-638 -173 c3 -5 1
-12 -5 -16 -5 -3 -10 1 -10 9 0 18 6 21 15 7z m-390 -180 c3 -5 1 -12 -5 -16
-5 -3 -10 1 -10 9 0 18 6 21 15 7z"/>
<path d="M8735 15329 c-373 -29 -481 -40 -540 -59 -16 -5 -93 -18 -170 -30
-158 -23 -393 -70 -505 -101 -93 -25 -90 -24 -120 -36 -14 -5 -55 -18 -92 -28
l-66 -17 28 -62 c15 -33 49 -106 75 -161 26 -55 114 -246 197 -425 82 -179
165 -358 184 -397 18 -40 84 -182 145 -315 61 -134 145 -315 185 -403 41 -88
74 -165 74 -171 0 -10 84 -200 195 -439 13 -27 47 -102 75 -165 29 -63 65
-142 80 -175 15 -33 134 -298 264 -590 131 -291 258 -572 283 -623 l45 -93 93
218 c303 714 776 1743 1459 3177 142 296 256 540 253 542 -5 6 -324 91 -414
111 -71 15 -83 21 -82 38 0 20 0 20 10 0 9 -19 9 -18 5 3 -2 12 0 20 5 16 5
-3 9 -13 10 -22 0 -14 2 -13 9 3 5 11 9 16 9 11 1 -5 8 -3 16 4 8 7 12 16 9
21 -8 14 3 12 157 -27 79 -20 152 -38 163 -40 11 -2 42 -11 70 -20 28 -8 56
-17 63 -19 7 -2 15 -1 17 4 5 8 -53 25 -354 105 -151 40 -367 83 -420 84 -19
1 -66 8 -105 16 -104 22 -288 46 -391 51 -50 2 -147 9 -215 14 -127 11 -560
11 -704 0z m165 -12 c0 -2 -19 -21 -42 -42 l-43 -40 40 43 c36 39 45 47 45 39z
m620 -10 c0 -2 -19 -21 -42 -42 l-43 -40 40 43 c36 39 45 47 45 39z m82 -40
c-18 -18 -29 -36 -26 -40 4 -4 -2 -7 -14 -7 -18 0 -15 6 21 40 51 48 63 53 19
7z m110 -10 c-18 -18 -29 -36 -26 -40 4 -4 -1 -7 -11 -7 -15 0 -11 8 20 40 21
22 41 40 44 40 3 0 -10 -15 -27 -33z m113 -17 c-21 -22 -46 -40 -55 -40 -11 1
-10 4 5 12 11 6 31 24 44 40 13 15 29 28 34 28 6 0 -7 -18 -28 -40z m-1565
-15 c-24 -25 -46 -45 -49 -45 -3 0 15 20 39 45 24 25 46 45 49 45 3 0 -15 -20
-39 -45z m1700 32 c0 -2 -17 -19 -37 -38 l-38 -34 34 38 c33 34 41 42 41 34z
m82 -40 c-18 -18 -29 -36 -26 -40 4 -4 -1 -7 -11 -7 -15 0 -11 8 20 40 21 22
41 40 44 40 3 0 -10 -15 -27 -33z m-1249 16 c-7 -2 -21 -2 -30 0 -10 3 -4 5
12 5 17 0 24 -2 18 -5z m625 0 c-10 -2 -26 -2 -35 0 -10 3 -2 5 17 5 19 0 27
-2 18 -5z m-785 -10 c-7 -2 -19 -2 -25 0 -7 3 -2 5 12 5 14 0 19 -2 13 -5z
m1537 4 c0 -2 -17 -19 -37 -38 l-38 -34 34 38 c33 34 41 42 41 34z m-1653 -13
c-3 -3 -12 -4 -19 -1 -8 3 -5 6 6 6 11 1 17 -2 13 -5z m-90 -10 c-3 -3 -12 -4
-19 -1 -8 3 -5 6 6 6 11 1 17 -2 13 -5z m1877 -3 c3 -5 15 -7 26 -4 11 3 20 1
20 -5 0 -5 -8 -9 -17 -8 -13 1 -18 -7 -19 -27 -1 -25 -1 -25 3 -2 2 14 8 25
13 25 5 0 7 -8 3 -17 -4 -12 0 -11 11 5 19 24 46 30 46 9 0 -7 -6 -25 -12 -41
-11 -23 -17 -26 -42 -22 -16 4 -35 6 -42 6 -9 0 -14 11 -13 33 l1 32 7 -30 7
-30 5 32 c3 19 2 30 -4 26 -6 -4 -7 -1 -2 8 8 12 6 12 -8 0 -9 -7 -17 -24 -17
-37 0 -18 -6 -24 -21 -24 -11 0 -18 4 -15 8 3 5 -9 7 -27 5 l-32 -4 25 14 c14
7 24 19 22 26 -1 7 2 10 7 7 5 -3 11 1 15 9 6 16 51 21 60 6z m-1957 -7 c-3
-3 -12 -4 -19 -1 -8 3 -5 6 6 6 11 1 17 -2 13 -5z m1600 -10 c-3 -3 -12 -4
-19 -1 -8 3 -5 6 6 6 11 1 17 -2 13 -5z m254 -11 c13 -16 12 -17 -3 -4 -17 13
-22 21 -14 21 2 0 10 -8 17 -17z m239 -3 c0 -5 0 -13 0 -17 0 -16 -35 -7 -38
10 -2 12 3 17 17 17 12 0 21 -4 21 -10z m-2843 -68 c-26 -27 -45 -51 -42 -55
3 -4 2 -5 -1 -2 -4 2 -16 -1 -28 -7 -11 -5 6 17 39 51 33 33 64 61 69 61 6 0
-11 -22 -37 -48z m715 -542 c158 -195 351 -498 463 -725 218 -445 333 -894
351 -1380 6 -144 -6 -398 -22 -479 -7 -34 6 -58 -136 254 -44 96 -83 177 -86
180 -4 3 -8 12 -10 20 -6 30 -76 180 -85 180 -4 0 -6 4 -3 9 3 5 -1 12 -10 15
-8 3 -12 11 -9 16 6 10 -115 293 -122 287 -1 -2 5 -22 13 -46 29 -85 8 -61
-40 46 -27 59 -159 347 -294 638 -134 292 -251 546 -258 565 -14 32 -13 33 1
15 9 -11 22 -29 30 -40 10 -15 9 -5 -3 38 -15 49 -20 57 -37 53 -19 -5 -19 -4
-2 8 19 14 23 46 6 46 -5 0 -7 -4 -4 -10 3 -5 1 -10 -4 -10 -6 0 -11 7 -11 15
0 8 6 15 13 15 8 0 7 4 -3 10 -10 7 -11 10 -2 10 10 0 10 4 0 19 -7 11 -16 17
-20 15 -10 -6 -11 10 -1 20 4 3 13 -4 19 -16 12 -21 13 -21 12 -3 0 11 3 36 8
55 7 31 6 34 -8 22 -11 -9 -18 -10 -23 -2 -4 6 -3 10 2 9 16 -4 43 13 43 27 0
47 127 220 154 211 6 -2 41 -41 78 -87z"/>
<path d="M10251 15154 c0 -11 3 -14 6 -6 3 7 2 16 -1 19 -3 4 -6 -2 -5 -13z"/>
<path d="M10362 15150 c-18 -29 -15 -38 4 -12 9 13 14 25 12 27 -2 2 -9 -5
-16 -15z"/>
<path d="M10410 15162 c0 -5 7 -9 15 -9 8 0 12 4 9 9 -3 4 -9 8 -15 8 -5 0 -9
-4 -9 -8z"/>
<path d="M12306 14443 c-4 -10 -4 -14 0 -11 3 4 27 -4 53 -18 46 -26 335 -224
424 -290 26 -20 47 -34 47 -31 0 9 -312 240 -388 287 -40 25 -86 53 -101 63
-27 17 -29 17 -35 0z"/>
<path d="M5785 14388 c-322 -209 -424 -277 -441 -295 -10 -12 -68 -58 -129
-103 -60 -45 -119 -92 -130 -105 -11 -12 -74 -67 -140 -122 -66 -55 -190 -172
-275 -259 -165 -170 -399 -425 -414 -452 -5 -10 -30 -42 -55 -72 -70 -82 -111
-137 -111 -146 0 -5 -21 -35 -46 -68 l-46 -59 45 -121 c26 -66 62 -167 82
-223 66 -192 581 -1529 730 -1898 20 -49 73 -180 117 -290 442 -1098 1429
-3368 1454 -3343 2 2 -39 97 -91 211 -268 589 -606 1365 -933 2142 -230 547
-244 583 -236 596 4 7 3 9 -3 6 -7 -4 -26 32 -48 91 -21 53 -42 103 -48 110
-8 10 -4 19 11 35 19 19 22 19 22 4 0 -23 -4 -32 -12 -30 -3 1 1 -11 9 -27 18
-36 26 -39 13 -5 -20 51 6 23 28 -32 18 -43 20 -59 11 -67 -9 -8 -10 -8 -6 0
4 6 0 20 -9 30 -14 18 -14 17 -3 -6 7 -14 12 -27 11 -30 0 -3 5 -4 12 -2 8 1
63 -119 151 -330 421 -1016 992 -2314 1410 -3203 25 -55 65 -139 87 -187 23
-49 44 -88 48 -88 7 0 684 1533 1204 2727 l31 73 510 0 c281 0 723 3 983 7
428 6 472 5 472 -10 0 -8 38 -100 84 -204 130 -293 414 -940 648 -1478 466
-1068 513 -1172 524 -1172 7 0 10 6 8 12 -3 6 41 110 96 231 853 1847 1686
3813 2511 5929 l199 510 -22 30 c-12 17 -64 83 -117 149 -354 442 -785 855
-1261 1208 -176 131 -451 311 -460 301 -4 -4 -102 -228 -218 -498 -497 -1159
-585 -1361 -1079 -2485 -87 -196 -372 -841 -654 -1475 l-257 -580 -984 -3
-984 -2 -83 187 c-542 1221 -1039 2364 -1638 3763 -251 586 -459 1067 -463
1070 -3 3 -13 26 -21 53 l-15 47 -79 -52z m475 -908 c494 -1150 1016 -2356
1419 -3280 83 -190 152 -352 154 -360 1 -8 6 -18 10 -21 4 -3 -27 -30 -69 -59
-43 -30 -75 -47 -71 -38 6 17 -16 19 -30 3 -4 -4 -2 -5 5 -1 7 5 12 1 12 -10
0 -10 -3 -15 -6 -11 -4 3 -14 -2 -23 -12 -19 -22 -78 -61 -69 -46 4 6 2 17 -4
25 -8 12 -9 12 -4 -3 3 -10 -3 -26 -16 -39 -21 -21 -21 -21 -36 -2 -13 18 -14
18 -7 -5 5 -16 4 -21 -4 -17 -6 4 -11 3 -11 -3 0 -6 -13 -17 -30 -26 -33 -17
-40 -19 -39 -7 1 4 4 6 8 5 4 -1 8 5 8 12 0 10 -4 12 -12 5 -7 -5 -15 -6 -19
-2 -4 4 -6 0 -4 -8 2 -8 -3 -15 -9 -16 -7 -1 -16 -3 -20 -4 -5 -1 -12 -2 -16
-1 -5 1 -6 -3 -2 -9 3 -6 11 -8 16 -5 5 4 9 3 9 -2 0 -12 -96 -64 -104 -56 -3
3 -6 0 -6 -7 0 -7 -3 -10 -7 -7 -3 4 -20 -2 -37 -12 -17 -11 -34 -20 -38 -21
-4 0 -23 -7 -43 -16 -19 -8 -38 -15 -42 -15 -5 0 -13 -5 -20 -10 -7 -7 -14 -6
-18 1 -3 5 -1 10 6 10 7 0 9 3 6 6 -4 4 -13 2 -20 -4 -8 -7 -18 -8 -22 -4 -5
4 -5 1 -1 -6 4 -7 12 -10 17 -7 5 4 9 1 9 -5 0 -6 -6 -10 -12 -8 -7 1 -23 -3
-35 -10 -13 -7 -23 -10 -23 -7 0 3 -10 -1 -22 -9 -29 -21 -38 -20 -39 2 0 13
-2 14 -6 2 -10 -29 -53 -52 -53 -29 0 5 4 8 8 5 5 -3 9 1 9 9 0 10 -4 12 -12
5 -7 -5 -15 -7 -19 -3 -4 4 -4 0 -1 -9 4 -10 0 -20 -12 -25 -26 -13 -49 -10
-45 7 2 10 0 11 -11 2 -8 -7 -18 -8 -22 -4 -5 4 -6 2 -2 -3 3 -6 2 -17 -4 -25
-7 -13 -9 -13 -10 0 -1 8 -1 19 0 23 1 5 -3 6 -8 2 -6 -3 -7 -13 -4 -23 6 -16
5 -16 -14 1 -16 14 -20 14 -20 2 0 -8 5 -11 11 -8 8 4 8 3 0 -6 -6 -6 -20 -13
-32 -16 -12 -2 -27 -7 -34 -11 -6 -4 -18 2 -26 12 -12 16 -14 16 -9 2 3 -10 2
-20 -3 -23 -6 -4 -11 2 -11 12 -1 17 -2 17 -6 0 -2 -9 -9 -15 -14 -11 -5 3 -6
10 -3 16 4 7 2 8 -4 4 -6 -4 -9 -12 -6 -20 3 -7 -2 -13 -11 -13 -11 0 -14 7
-10 21 5 17 3 16 -9 -4 -8 -14 -18 -25 -23 -26 -4 0 -26 -4 -48 -9 -56 -13
-58 -12 -73 5 -10 13 -11 12 -5 -4 5 -15 3 -17 -8 -10 -20 12 -40 14 -33 3 3
-5 10 -6 16 -3 6 4 8 2 4 -4 -3 -6 -14 -10 -24 -10 -9 1 -27 -2 -39 -6 -15 -5
-23 -3 -23 4 0 6 4 9 9 5 5 -3 12 -1 15 4 4 5 -1 8 -10 7 -8 -1 -19 -8 -23
-15 -8 -13 -79 -23 -86 -12 -3 6 -71 7 -85 1 -13 -6 -36 -5 -46 2 -6 4 -11 2
-11 -6 0 -10 9 -13 26 -9 14 2 22 1 17 -4 -11 -11 -117 -13 -110 -2 3 5 10 6
16 3 7 -5 8 -2 3 5 -5 9 -11 9 -17 3 -6 -6 -16 -9 -22 -8 -6 2 -8 1 -3 -1 4
-3 7 -8 7 -13 0 -8 -47 -7 -54 1 -1 2 -29 68 -61 147 -32 78 -62 142 -67 142
-4 0 -5 6 -2 14 3 7 -1 20 -9 27 -7 8 -12 19 -10 26 2 6 -4 10 -14 9 -13 -1
-31 34 -82 155 -35 86 -69 156 -75 155 -6 0 -12 3 -13 7 -1 4 -8 18 -16 30 -7
12 -51 114 -97 227 -45 113 -86 206 -91 208 -4 2 -6 9 -3 16 3 8 -1 20 -9 27
-7 8 -12 21 -10 29 2 8 -1 7 -8 -4 -10 -17 -17 -6 -56 90 -172 428 -590 1512
-649 1687 -65 191 -66 312 -5 458 38 91 86 159 214 307 196 226 499 517 737
708 215 174 338 258 415 285 l50 18 21 -42 c12 -23 90 -202 174 -397z m-1020
406 c0 -2 -8 -10 -17 -17 -16 -13 -17 -12 -4 4 13 16 21 21 21 13z m-190 -160
c0 -2 -8 -10 -17 -17 -16 -13 -17 -12 -4 4 13 16 21 21 21 13z m-90 -79 c0 -2
-12 -14 -27 -28 l-28 -24 24 28 c23 25 31 32 31 24z m-150 -140 c0 -1 -33 -34
-72 -72 l-73 -70 70 73 c64 67 75 77 75 69z m-240 -250 c0 -2 -12 -14 -27 -28
l-28 -24 24 28 c23 25 31 32 31 24z m-90 -100 c0 -2 -10 -12 -22 -23 l-23 -19
19 23 c18 21 26 27 26 19z m-70 -81 c0 -2 -8 -10 -17 -17 -16 -13 -17 -12 -4
4 13 16 21 21 21 13z m-209 -819 l-24 -22 19 27 c10 14 21 24 23 22 3 -3 -6
-15 -18 -27z m173 -383 c3 -8 2 -12 -3 -9 -5 3 -12 1 -16 -5 -3 -5 -11 -10
-17 -10 -6 0 -3 9 7 20 22 24 21 24 29 4z m127 -407 l-24 -22 19 27 c10 14 21
24 23 22 3 -3 -6 -15 -18 -27z m178 -380 c-2 -1 -13 -9 -24 -17 -19 -14 -19
-14 -6 3 7 9 18 17 24 17 6 0 8 -1 6 -3z m177 -459 c4 -7 4 -10 -1 -6 -4 4
-15 2 -24 -5 -14 -11 -14 -10 -2 6 16 20 18 21 27 5z m34 -76 c0 -4 -10 -13
-22 -21 -23 -14 -23 -14 -4 8 20 22 26 25 26 13z m36 -109 c-3 -4 -6 -1 -6 7
0 10 -3 10 -17 -1 -15 -13 -15 -12 -2 8 11 19 15 20 22 7 5 -9 6 -18 3 -21z
m24 -78 c-7 -8 -17 -15 -22 -15 -6 0 -5 7 2 15 7 8 17 15 22 15 6 0 5 -7 -2
-15z m46 -87 c4 -7 4 -10 -1 -6 -4 4 -15 2 -24 -5 -14 -11 -14 -10 -2 6 16 20
18 21 27 5z m34 -71 c0 -2 -10 -12 -22 -23 l-23 -19 19 23 c18 21 26 27 26 19z
m34 -94 c4 -10 4 -14 0 -10 -4 4 -14 1 -22 -6 -13 -11 -14 -9 -1 11 17 26 15
26 23 5z m16 -33 c0 -5 -5 -10 -11 -10 -5 0 -7 5 -4 10 3 6 8 10 11 10 2 0 4
-4 4 -10z m2350 -532 c0 -4 -4 -8 -9 -8 -6 0 -12 4 -15 8 -3 5 1 9 9 9 8 0 15
-4 15 -9z m-620 -248 c0 -5 -5 -10 -11 -10 -5 0 -7 5 -4 10 3 6 8 10 11 10 2
0 4 -4 4 -10z m-616 -131 c-2 -4 -20 -7 -39 -7 -19 0 -33 3 -31 7 3 4 20 7 40
7 19 0 33 -3 30 -7z"/>
<path d="M6025 13879 c-3 -4 2 -6 10 -5 21 3 28 13 10 13 -9 0 -18 -4 -20 -8z"/>
<path d="M5489 13493 c-13 -16 -12 -17 4 -4 16 13 21 21 13 21 -2 0 -10 -8
-17 -17z"/>
<path d="M5304 13328 l-19 -23 23 19 c21 18 27 26 19 26 -2 0 -12 -10 -23 -22z"/>
<path d="M5339 13323 c-13 -16 -12 -17 4 -4 9 7 17 15 17 17 0 8 -8 3 -21 -13z"/>
<path d="M4989 13013 c-13 -16 -12 -17 4 -4 9 7 17 15 17 17 0 8 -8 3 -21 -13z"/>
<path d="M4989 12973 c-13 -16 -12 -17 4 -4 9 7 17 15 17 17 0 8 -8 3 -21 -13z"/>
<path d="M5330 10445 c0 -5 5 -17 10 -25 5 -8 10 -10 10 -5 0 6 -5 17 -10 25
-5 8 -10 11 -10 5z"/>
<path d="M5576 9893 c-6 -14 -5 -15 5 -6 7 7 10 15 7 18 -3 3 -9 -2 -12 -12z"/>
<path d="M5593 9858 c1 -15 6 -23 11 -18 4 4 4 16 -2 26 -9 16 -10 14 -9 -8z"/>
<path d="M7649 9718 c-5 -18 -6 -38 -1 -34 7 8 12 36 6 36 -2 0 -4 -1 -5 -2z"/>
<path d="M7611 9686 c-8 -10 -9 -16 -1 -21 5 -3 10 -5 11 -3 4 18 7 38 4 38
-1 0 -8 -6 -14 -14z"/>
<path d="M7560 9651 c0 -7 -4 -10 -8 -7 -5 3 -9 -2 -9 -10 0 -13 2 -13 16 0 8
9 12 19 8 22 -4 4 -7 2 -7 -5z"/>
<path d="M7485 9610 c-10 -11 -15 -23 -12 -27 4 -3 7 -1 7 6 0 7 5 9 13 5 6
-4 9 -4 5 1 -4 4 -3 14 3 22 18 21 4 15 -16 -7z"/>
<path d="M7352 9539 c2 -7 -3 -13 -11 -14 -8 0 -15 -6 -17 -13 -1 -7 0 -8 3
-2 2 5 8 8 13 5 4 -3 13 2 19 9 9 10 9 16 1 21 -6 4 -9 1 -8 -6z"/>
<path d="M7295 9510 c-4 -6 -12 -7 -18 -4 -7 4 -8 3 -4 -1 13 -15 34 -14 34 1
0 17 -4 18 -12 4z"/>
<path d="M7233 9475 c0 -8 4 -12 9 -9 5 3 6 10 3 15 -9 13 -12 11 -12 -6z"/>
<path d="M7205 9471 c-3 -5 -2 -12 3 -15 5 -3 9 1 9 9 0 17 -3 19 -12 6z"/>
<path d="M7150 9445 c-7 -8 -16 -13 -20 -10 -5 3 -11 1 -14 -4 -11 -16 11 -22
24 -6 7 8 16 13 19 10 4 -2 8 2 8 10 0 19 -2 19 -17 0z"/>
<path d="M7005 9391 c-3 -5 -2 -12 3 -15 5 -3 9 1 9 9 0 17 -3 19 -12 6z"/>
<path d="M6976 9377 c3 -10 9 -15 12 -12 3 3 0 11 -7 18 -10 9 -11 8 -5 -6z"/>
<path d="M6830 9331 c0 -6 4 -13 10 -16 6 -3 7 1 4 9 -7 18 -14 21 -14 7z"/>
<path d="M6691 9287 c-8 -10 -7 -14 2 -14 8 0 14 6 14 14 0 7 -1 13 -2 13 -2
0 -8 -6 -14 -13z"/>
<path d="M6655 9270 c3 -5 8 -10 11 -10 2 0 4 5 4 10 0 6 -5 10 -11 10 -5 0
-7 -4 -4 -10z"/>
<path d="M6525 9251 c-3 -5 -2 -12 3 -15 5 -3 9 1 9 9 0 17 -3 19 -12 6z"/>
<path d="M6467 9238 c-4 -13 -1 -16 15 -13 11 3 23 7 27 11 3 4 -2 4 -11 1 -9
-3 -18 -1 -21 6 -2 6 -6 4 -10 -5z"/>
<path d="M6420 9235 c0 -2 6 -8 13 -14 10 -8 14 -7 14 2 0 8 -6 14 -14 14 -7
0 -13 -1 -13 -2z"/>
<path d="M6219 9193 c-12 -16 -12 -17 2 -6 9 8 19 9 25 3 6 -6 15 -5 24 1 13
9 13 10 -1 6 -9 -3 -21 -1 -26 4 -6 6 -15 3 -24 -8z"/>
<path d="M6033 9175 c0 -8 4 -12 9 -9 5 3 6 10 3 15 -9 13 -12 11 -12 -6z"/>
<path d="M5935 9171 c-3 -5 -2 -12 3 -15 5 -3 9 1 9 9 0 17 -3 19 -12 6z"/>
<path d="M12861 14068 c14 -13 75 -61 135 -108 60 -47 146 -118 192 -159 46
-40 85 -72 87 -69 7 7 -354 309 -410 342 l-30 17 26 -23z"/>
<path d="M13325 13684 c22 -22 103 -101 180 -174 121 -116 126 -120 40 -31
-55 56 -136 134 -180 174 -44 39 -62 53 -40 31z"/>
<path d="M13695 13320 c27 -27 51 -50 54 -50 3 0 -17 23 -44 50 -27 28 -51 50
-54 50 -3 0 17 -22 44 -50z"/>
<path d="M3061 10793 c-88 -341 -137 -561 -147 -661 -3 -31 -14 -106 -25 -167
-28 -156 -37 -218 -43 -320 -3 -49 -11 -153 -17 -230 -24 -324 11 -990 71
-1325 16 -91 32 -185 36 -210 11 -83 63 -325 78 -365 19 -53 20 -34 0 40 -8
33 -13 68 -10 78 2 11 2 16 -2 12 -7 -6 -41 133 -42 169 0 14 3 16 13 7 11 -8
18 -6 31 8 11 12 14 21 7 26 -6 3 -11 12 -11 18 0 7 4 6 11 -3 8 -12 9 -10 4
9 -5 17 -4 21 5 16 6 -4 10 -16 7 -26 -3 -10 -1 -22 4 -25 5 -3 9 -15 9 -26 0
-12 -3 -18 -7 -15 -3 4 -16 -2 -29 -14 -17 -16 -20 -27 -15 -47 9 -32 25 -32
30 0 3 22 4 22 12 3 7 -17 7 -16 6 7 -1 15 -4 25 -7 23 -4 -2 -7 2 -7 9 0 8 6
12 14 9 7 -3 13 -10 12 -17 -1 -6 0 -18 3 -26 3 -8 28 -109 56 -225 218 -897
648 -1733 1268 -2460 160 -189 483 -512 679 -679 261 -224 594 -466 885 -643
112 -68 364 -210 446 -251 l41 -21 -86 162 c-48 89 -116 216 -151 282 -34 66
-83 158 -108 205 -81 153 -528 1050 -642 1290 -707 1480 -1472 3300 -2150
5110 -48 129 -104 274 -124 322 -20 48 -39 103 -44 123 -6 31 -13 11 -61 -172z
m7 -221 c-70 -67 -76 -56 -8 14 30 30 56 50 58 45 2 -5 -21 -31 -50 -59z m-91
-649 c0 -17 -1 -20 -4 -9 -4 16 -11 12 -51 -25 l-47 -44 50 53 c27 28 50 52
50 52 0 0 1 -12 2 -27z m-10 -85 c-3 -8 -6 -5 -6 6 -1 11 2 17 5 13 3 -3 4
-12 1 -19z m-30 -270 c-3 -8 -6 -5 -6 6 -1 11 2 17 5 13 3 -3 4 -12 1 -19z
m-10 -130 c-3 -7 -5 -2 -5 12 0 14 2 19 5 13 2 -7 2 -19 0 -25z m-47 -143
c-24 -25 -46 -45 -49 -45 -3 0 15 20 39 45 24 25 46 45 49 45 3 0 -15 -20 -39
-45z m37 -72 c-2 -16 -4 -5 -4 22 0 28 2 40 4 28 2 -13 2 -35 0 -50z m0 -320
c-2 -16 -4 -5 -4 22 0 28 2 40 4 28 2 -13 2 -35 0 -50z m12 -200 c0 -16 -3
-22 -6 -15 -4 10 -16 4 -41 -20 l-36 -33 39 47 c22 25 41 47 43 47 1 1 2 -11
1 -26z m1 -106 c0 -2 -17 -19 -37 -38 l-38 -34 34 38 c33 34 41 42 41 34z m7
-49 c-3 -7 -5 -2 -5 12 0 14 2 19 5 13 2 -7 2 -19 0 -25z m3 -61 c0 -2 -17
-19 -37 -38 l-38 -34 34 38 c33 34 41 42 41 34z m7 -49 c-3 -7 -5 -2 -5 12 0
14 2 19 5 13 2 -7 2 -19 0 -25z m12 -86 c0 -12 -2 -13 -6 -4 -4 10 -15 4 -39
-19 -43 -42 -45 -26 -2 18 32 33 49 35 47 5z m-30 -126 l-44 -41 38 40 c20 23
37 47 38 55 0 12 2 12 6 1 3 -7 -13 -31 -38 -55z m48 -38 c-3 -8 -6 -5 -6 6
-1 11 2 17 5 13 3 -3 4 -12 1 -19z m3 -31 c0 -2 -17 -19 -37 -38 l-38 -34 34
38 c33 34 41 42 41 34z m7 -39 c-3 -8 -6 -5 -6 6 -1 11 2 17 5 13 3 -3 4 -12
1 -19z m-22 -96 l-39 -37 35 41 c19 22 36 39 39 37 2 -2 -13 -20 -35 -41z m53
-98 c-2 -11 -9 -18 -14 -17 -11 2 -12 -36 -2 -53 4 -7 1 -17 -6 -23 -10 -8
-16 -9 -21 -1 -3 6 -11 8 -16 5 -5 -4 -9 10 -9 29 0 19 5 38 10 41 6 4 7 11 4
17 -4 6 -3 8 3 5 5 -3 16 3 23 13 16 23 34 12 28 -16z m-3 -151 c-2 -10 -4
-27 -5 -38 -2 -17 -3 -16 -9 5 -4 14 -3 31 2 38 13 16 16 15 12 -5z"/>
<path d="M2971 7871 c-8 -14 -7 -22 3 -30 9 -8 16 -8 20 -2 4 5 1 13 -5 16 -5
4 -8 13 -5 21 8 21 -2 17 -13 -5z"/>
<path d="M15022 10848 c-12 -24 -61 -149 -111 -278 -295 -769 -627 -1600 -956
-2390 -213 -512 -614 -1432 -759 -1743 -25 -54 -46 -100 -46 -103 0 -7 -167
-366 -330 -709 -29 -60 -76 -162 -105 -225 -29 -63 -86 -180 -125 -260 -40
-80 -98 -199 -130 -265 -32 -66 -75 -147 -95 -180 -21 -33 -65 -116 -99 -185
-34 -69 -72 -141 -84 -160 -12 -19 -22 -43 -22 -52 0 -10 -4 -18 -8 -18 -10 0
-48 -80 -44 -92 1 -5 -2 -8 -6 -8 -5 0 -28 -39 -52 -88 -24 -48 -53 -105 -64
-127 -12 -22 -62 -116 -110 -210 -49 -93 -108 -205 -132 -247 -30 -56 -38 -78
-29 -82 7 -2 15 1 18 7 3 7 81 55 173 106 1094 607 1948 1405 2531 2361 539
886 834 1931 869 3075 17 557 -69 1154 -257 1787 -15 51 -17 72 -9 93 17 45 4
40 -18 -7z"/>
<path d="M3037 7440 c3 -19 12 -53 19 -75 13 -38 13 -38 7 -5 -3 19 -12 53
-19 75 -13 38 -13 38 -7 5z"/>
<path d="M3071 7304 c0 -11 3 -14 6 -6 3 7 2 16 -1 19 -3 4 -6 -2 -5 -13z"/>
<path d="M3081 7272 c-2 -23 81 -285 105 -337 28 -57 28 -58 -33 130 -67 208
-71 221 -72 207z"/>
<path d="M9018 6988 c-242 -544 -826 -1839 -955 -2118 -20 -41 -59 -129 -88
-195 -51 -116 -265 -580 -567 -1232 -135 -289 -144 -312 -124 -316 12 -2 120
-30 241 -61 666 -171 1148 -226 1799 -205 471 15 795 62 1299 185 164 41 267
70 267 78 0 6 -42 102 -94 211 -51 110 -108 232 -126 270 -18 39 -51 108 -72
155 -22 47 -55 117 -73 155 -18 39 -123 266 -235 505 -250 536 -248 533 -355
765 -48 105 -114 249 -147 320 -83 178 -182 396 -338 745 -73 162 -146 324
-162 360 -17 36 -71 155 -120 265 -49 110 -93 204 -97 208 -4 4 -28 -39 -53
-95z"/>
<path d="M3216 6860 c3 -14 11 -32 16 -40 6 -10 7 -7 2 10 -3 14 -11 32 -16
40 -6 10 -7 7 -2 -10z"/>
<path d="M3240 6797 c0 -30 171 -433 192 -452 7 -7 9 -7 6 0 -42 89 -133 299
-159 370 -28 74 -39 97 -39 82z"/>
<path d="M6460 6755 c0 -5 5 -17 10 -25 5 -8 10 -10 10 -5 0 6 -5 17 -10 25
-5 8 -10 11 -10 5z"/>
<path d="M6530 6605 c0 -5 5 -17 10 -25 5 -8 10 -10 10 -5 0 6 -5 17 -10 25
-5 8 -10 11 -10 5z"/>
<path d="M6570 6511 c0 -6 4 -13 10 -16 6 -3 7 1 4 9 -7 18 -14 21 -14 7z"/>
<path d="M3490 6226 c0 -11 30 -66 36 -66 2 0 -3 15 -12 33 -19 36 -24 44 -24
33z"/>
<path d="M3540 6126 c0 -7 130 -246 156 -288 13 -21 27 -38 30 -38 4 0 -2 12
-12 28 -29 44 -83 141 -125 225 -34 67 -49 89 -49 73z"/>
<path d="M5343 15452 c-8 -14 -8 -19 1 -19 7 0 13 9 13 19 1 10 1 18 0 18 -1
0 -7 -8 -14 -18z"/>
<path d="M5375 15459 c-4 -6 -4 -13 -1 -16 3 -4 6 -1 6 6 0 7 5 9 12 5 7 -4 8
-3 4 4 -9 15 -13 15 -21 1z"/>
<path d="M5315 15449 c-4 -6 -5 -12 -2 -15 2 -3 7 2 10 11 7 17 1 20 -8 4z"/>
<path d="M5273 15435 c0 -6 6 -12 12 -12 6 0 12 6 12 12 0 6 -6 12 -12 12 -6
0 -12 -6 -12 -12z"/>
<path d="M5180 15415 c-7 -9 -11 -17 -9 -20 3 -2 10 5 17 15 14 24 10 26 -8 5z"/>
<path d="M5135 15399 c-4 -6 -4 -13 -1 -16 3 -4 6 -1 6 6 0 7 5 9 12 5 7 -4 8
-3 4 4 -9 15 -13 15 -21 1z"/>
<path d="M5096 15391 c-4 -5 -2 -12 3 -15 5 -4 12 -2 15 3 4 5 2 12 -3 15 -5
4 -12 2 -15 -3z"/>
<path d="M4419 15118 c-5 -18 -6 -38 -1 -34 7 8 12 36 6 36 -2 0 -4 -1 -5 -2z"/>
<path d="M4350 15071 c0 -6 4 -13 10 -16 6 -3 7 1 4 9 -7 18 -14 21 -14 7z"/>
<path d="M4302 15038 c-7 -7 -12 -17 -12 -22 0 -6 5 -3 11 7 6 9 15 14 21 11
7 -4 8 -2 4 4 -9 15 -9 15 -24 0z"/>
<path d="M4256 15021 c-4 -5 -2 -12 3 -15 5 -4 12 -2 15 3 4 5 2 12 -3 15 -5
4 -12 2 -15 -3z"/>
<path d="M4053 14871 c0 -11 5 -18 9 -15 4 3 5 11 1 19 -7 21 -12 19 -10 -4z"/>
<path d="M3993 14838 c-18 -23 -25 -43 -8 -23 9 11 21 19 26 17 6 -1 8 2 4 8
-8 13 -10 13 -22 -2z"/>
<path d="M3943 14797 c0 -8 6 -14 14 -14 9 0 10 4 2 14 -6 7 -12 13 -14 13 -1
0 -2 -6 -2 -13z"/>
<path d="M3916 14771 c-4 -5 -2 -12 3 -15 5 -4 12 -2 15 3 4 5 2 12 -3 15 -5
4 -12 2 -15 -3z"/>
<path d="M3893 14751 c0 -11 5 -18 9 -15 4 3 5 11 1 19 -7 21 -12 19 -10 -4z"/>
<path d="M3871 14724 c0 -11 3 -14 6 -6 3 7 2 16 -1 19 -3 4 -6 -2 -5 -13z"/>
<path d="M3839 14714 c-13 -16 -23 -51 -11 -39 4 4 7 12 7 18 1 7 6 11 11 10
6 -1 11 5 11 13 0 18 -2 18 -18 -2z"/>
<path d="M3761 14646 c-8 -10 -9 -16 -1 -21 6 -4 9 -1 8 7 -2 7 3 12 10 10 8
-1 11 2 7 8 -8 13 -10 13 -24 -4z"/>
<path d="M3723 14613 c-3 -10 -8 -22 -11 -27 -3 -5 0 -6 6 -2 7 4 12 14 12 22
0 9 5 12 12 8 7 -4 8 -3 4 4 -10 16 -16 15 -23 -5z"/>
<path d="M3693 14571 c0 -11 5 -18 9 -15 4 3 5 11 1 19 -7 21 -12 19 -10 -4z"/>
<path d="M3666 14555 c-3 -9 -11 -13 -16 -10 -6 4 -9 1 -8 -7 2 -7 -3 -12 -9
-10 -7 1 -12 -4 -10 -10 1 -7 -4 -12 -10 -10 -7 1 -12 -4 -10 -10 1 -7 -4 -12
-11 -10 -8 1 -11 -2 -6 -9 4 -7 23 5 52 35 25 25 43 48 40 51 -3 3 -8 -1 -12
-10z"/>
<path d="M17681 7494 c0 -11 3 -14 6 -6 3 7 2 16 -1 19 -3 4 -6 -2 -5 -13z"/>
<path d="M17721 7464 c0 -11 3 -14 6 -6 3 7 2 16 -1 19 -3 4 -6 -2 -5 -13z"/>
<path d="M14939 2563 l-24 -28 28 24 c15 14 27 26 27 28 0 8 -8 1 -31 -24z"/>
<path d="M14949 2513 c-13 -16 -12 -17 4 -4 16 13 21 21 13 21 -2 0 -10 -8
-17 -17z"/>
<path d="M7978 363 c7 -3 16 -2 19 1 4 3 -2 6 -13 5 -11 0 -14 -3 -6 -6z"/>
<path d="M8058 353 c6 -2 18 -2 25 0 6 3 1 5 -13 5 -14 0 -19 -2 -12 -5z"/>
</g>
</svg>
